<svg width="461" height="393" viewBox="0 0 461 393" fill="none" xmlns="http://www.w3.org/2000/svg">
<path d="M377.505 18.7104L449.429 143.287H305.58L377.505 18.7104Z" fill="#E8E8E8"/>
<rect x="101.171" y="42.8706" width="283.883" height="16.6102" rx="8.3051" fill="#D6D6D6"/>
<path d="M92.1111 5.12012L171.882 143.287H12.3405L92.1111 5.12012Z" fill="#E8E8E8"/>
<rect x="12" y="143" width="160" height="172" fill="#E8E8E8"/>
<path d="M44.0825 333.984V383H31.8389V333.984H12.9546V324.521H63.0083V333.984H44.0825ZM124.932 353.491C124.932 359.578 123.701 364.904 121.238 369.47C118.803 374.007 115.359 377.535 110.904 380.053C106.477 382.571 101.275 383.83 95.2983 383.83C89.1834 383.83 83.9263 382.613 79.5269 380.178C75.1274 377.715 71.7518 374.215 69.3999 369.677C67.048 365.139 65.8721 359.744 65.8721 353.491C65.8721 347.237 67.0342 341.883 69.3584 337.429C71.7103 332.974 75.0859 329.571 79.4854 327.219C83.9124 324.839 89.2111 323.649 95.3813 323.649C101.579 323.649 106.878 324.853 111.277 327.26C115.677 329.64 119.052 333.057 121.404 337.512C123.756 341.966 124.932 347.293 124.932 353.491ZM112.439 353.491C112.439 347.182 110.945 342.243 107.957 338.674C104.969 335.077 100.777 333.278 95.3813 333.278C89.9028 333.278 85.6694 335.063 82.6812 338.632C79.6929 342.174 78.1987 347.127 78.1987 353.491C78.1987 357.752 78.8905 361.432 80.2739 364.531C81.6574 367.63 83.6219 370.023 86.1675 371.711C88.7407 373.371 91.7843 374.201 95.2983 374.201C100.777 374.201 104.996 372.403 107.957 368.806C110.945 365.209 112.439 360.104 112.439 353.491ZM191.089 353.491C191.089 359.578 189.858 364.904 187.396 369.47C184.961 374.007 181.516 377.535 177.061 380.053C172.634 382.571 167.432 383.83 161.456 383.83C155.341 383.83 150.083 382.613 145.684 380.178C141.285 377.715 137.909 374.215 135.557 369.677C133.205 365.139 132.029 359.744 132.029 353.491C132.029 347.237 133.191 341.883 135.516 337.429C137.868 332.974 141.243 329.571 145.643 327.219C150.07 324.839 155.368 323.649 161.539 323.649C167.736 323.649 173.035 324.853 177.435 327.26C181.834 329.64 185.21 333.057 187.562 337.512C189.913 341.966 191.089 347.293 191.089 353.491ZM178.597 353.491C178.597 347.182 177.103 342.243 174.114 338.674C171.126 335.077 166.934 333.278 161.539 333.278C156.06 333.278 151.827 335.063 148.838 338.632C145.85 342.174 144.356 347.127 144.356 353.491C144.356 357.752 145.048 361.432 146.431 364.531C147.815 367.63 149.779 370.023 152.325 371.711C154.898 373.371 157.942 374.201 161.456 374.201C166.934 374.201 171.154 372.403 174.114 368.806C177.103 365.209 178.597 360.104 178.597 353.491ZM244.007 373.537V383H200.386V324.521H212.63V373.537H244.007ZM304.188 366.315C304.188 371.628 302.195 375.737 298.211 378.642C294.227 381.547 288.693 383 281.609 383H252.349V324.521H279.119C286.258 324.521 291.653 325.766 295.306 328.256C298.986 330.719 300.826 334.371 300.826 339.213C300.826 342.534 299.899 345.342 298.045 347.639C296.219 349.908 293.424 351.443 289.661 352.246C294.393 352.799 297.99 354.293 300.452 356.728C302.942 359.135 304.188 362.331 304.188 366.315ZM288.499 340.874C288.499 338.245 287.655 336.377 285.967 335.271C284.307 334.164 281.831 333.61 278.538 333.61H264.593V348.095H278.621C282.08 348.095 284.584 347.5 286.133 346.311C287.71 345.093 288.499 343.281 288.499 340.874ZM291.902 365.361C291.902 359.882 287.973 357.143 280.115 357.143H264.593V373.911H280.572C284.501 373.911 287.365 373.205 289.163 371.794C290.989 370.355 291.902 368.211 291.902 365.361ZM370.635 353.491C370.635 359.578 369.404 364.904 366.941 369.47C364.507 374.007 361.062 377.535 356.607 380.053C352.18 382.571 346.978 383.83 341.001 383.83C334.887 383.83 329.629 382.613 325.23 380.178C320.831 377.715 317.455 374.215 315.103 369.677C312.751 365.139 311.575 359.744 311.575 353.491C311.575 347.237 312.737 341.883 315.062 337.429C317.413 332.974 320.789 329.571 325.188 327.219C329.616 324.839 334.914 323.649 341.084 323.649C347.282 323.649 352.581 324.853 356.98 327.26C361.38 329.64 364.756 333.057 367.107 337.512C369.459 341.966 370.635 347.293 370.635 353.491ZM358.143 353.491C358.143 347.182 356.648 342.243 353.66 338.674C350.672 335.077 346.48 333.278 341.084 333.278C335.606 333.278 331.373 335.063 328.384 338.632C325.396 342.174 323.902 347.127 323.902 353.491C323.902 357.752 324.594 361.432 325.977 364.531C327.361 367.63 329.325 370.023 331.871 371.711C334.444 373.371 337.487 374.201 341.001 374.201C346.48 374.201 350.7 372.403 353.66 368.806C356.648 365.209 358.143 360.104 358.143 353.491ZM402.635 359.716L387.942 383H374.993L395.247 352.246L376.695 324.521H389.644L402.635 345.19L415.625 324.521H428.492L410.728 352.246L430.193 383H417.327L402.635 359.716ZM448.87 324.521V383H436.626V324.521H448.87Z" fill="#D6D6D6"/>
<rect x="172" y="143" width="276" height="172" fill="#D6D6D6"/>
<rect x="12" width="436" height="43" fill="white"/>
</svg>
